# Blender v2.81 (sub 16) OBJ File: 'Carpet.blend'
# www.blender.org
mtllib Carpet.mtl
o Carpet_Cube
v 4.000000 0.050000 -7.000000
v 4.000000 0.000000 -7.000000
v 4.000000 0.050000 1.000000
v 4.000000 0.000000 1.000000
v -1.000000 0.050000 -7.000000
v -1.000000 0.000000 -7.000000
v -1.000000 0.050000 1.000000
v -1.000000 0.000000 1.000000
vt 4.299238 2.848973
vt 0.442143 2.848973
vt 0.442144 -3.414955
vt 4.299238 -3.414955
vt 4.376383 0.500000
vt 4.414955 0.500000
vt 4.414955 4.414955
vt 4.376383 4.414955
vt 4.376383 2.848973
vt 4.337811 2.848973
vt 4.337811 -3.414955
vt 4.376383 -3.414955
vt -3.414955 -3.414955
vt 0.442142 -3.414955
vt 0.442143 2.848973
vt -3.414955 2.848973
vt 4.337811 2.848973
vt 4.337811 -3.414955
vt 4.414955 -3.414955
vt 4.414955 0.500000
vt 4.376383 0.500000
vn 0.0000 1.0000 0.0000
vn 0.0000 0.0000 1.0000
vn -1.0000 0.0000 0.0000
vn 0.0000 -1.0000 0.0000
vn 1.0000 0.0000 0.0000
vn 0.0000 0.0000 -1.0000
usemtl carpet
s off
f 1/1/1 5/2/1 7/3/1 3/4/1
f 4/5/2 3/6/2 7/7/2 8/8/2
f 8/9/3 7/10/3 5/11/3 6/12/3
f 6/13/4 2/14/4 4/15/4 8/16/4
f 2/17/5 1/1/5 3/4/5 4/18/5
f 6/12/6 5/19/6 1/20/6 2/21/6
o Cube_Cube.001
v -26.609499 -26.609499 26.609499
v -26.609499 26.609499 26.609499
v -26.609499 -26.609499 -26.609499
v -26.609499 26.609499 -26.609499
v 26.609499 -26.609499 26.609499
v 26.609499 26.609499 26.609499
v 26.609499 -26.609499 -26.609499
v 26.609499 26.609499 -26.609499
vt 0.375000 0.000000
vt 0.625000 0.000000
vt 0.625000 0.250000
vt 0.375000 0.250000
vt 0.625000 0.500000
vt 0.375000 0.500000
vt 0.625000 0.750000
vt 0.375000 0.750000
vt 0.625000 1.000000
vt 0.375000 1.000000
vt 0.125000 0.500000
vt 0.125000 0.750000
vt 0.875000 0.500000
vt 0.875000 0.750000
vn -1.0000 0.0000 0.0000
vn 0.0000 0.0000 -1.0000
vn 1.0000 0.0000 0.0000
vn 0.0000 0.0000 1.0000
vn 0.0000 -1.0000 0.0000
vn 0.0000 1.0000 0.0000
usemtl None
s off
f 9/22/7 10/23/7 12/24/7 11/25/7
f 11/25/8 12/24/8 16/26/8 15/27/8
f 15/27/9 16/26/9 14/28/9 13/29/9
f 13/29/10 14/28/10 10/30/10 9/31/10
f 11/32/11 15/27/11 13/29/11 9/33/11
f 16/26/12 12/34/12 10/35/12 14/28/12
